<svg xmlns="http://www.w3.org/2000/svg" viewBox="0 0 509.46 104.3"><defs><style>.cls-1{fill:#075595;}.cls-2{fill:#231f20;}</style></defs><g id="Layer_2" data-name="Layer 2"><g id="Isolation_Mode" data-name="Isolation Mode"><path class="cls-1" d="M93.69,94.47h2.77c0,1.85,1.53,2.88,3.48,2.88,1.77,0,3.28-.93,3.28-2.46s-1.78-2.07-3.78-2.54C96.9,91.73,94,91,94,87.6c0-3,2.27-4.77,5.81-4.77s5.74,2,5.74,5.1h-2.69c0-1.66-1.37-2.56-3.11-2.56s-3,.76-3,2.12c0,1.53,1.71,2,3.69,2.42,2.58.64,5.63,1.38,5.63,5,0,3.33-2.69,5.1-6.06,5.1C96.24,100,93.69,97.86,93.69,94.47Z"/><path class="cls-1" d="M112.67,82.17h2.72v2.72h-2.72Zm0,4.71h2.64V99.7h-2.64Z"/><path class="cls-1" d="M141.75,91.55V99.7h-2.64V92.19c0-2.06-.9-3.24-2.49-3.24s-3,1.55-3,3.74v7H131V92.19c0-2.06-.89-3.24-2.49-3.24s-3,1.55-3,3.74v7h-2.64V86.88h1.87l.45,1.65a5.14,5.14,0,0,1,4-1.94A4.18,4.18,0,0,1,133,88.83a5.07,5.07,0,0,1,4.19-2.24C139.92,86.59,141.75,88.64,141.75,91.55Z"/><path class="cls-1" d="M162.64,93.29A6.51,6.51,0,0,1,156,100a6.4,6.4,0,0,1-4.26-1.55v5.83H149.1V86.88h1.78l.5,1.57A6.39,6.39,0,0,1,156,86.56,6.5,6.5,0,0,1,162.64,93.29Zm-2.66,0a4.2,4.2,0,1,0-4.19,4.21A4.08,4.08,0,0,0,160,93.29Z"/><path class="cls-1" d="M169.25,82.28h2.64V99.7h-2.64Z"/><path class="cls-1" d="M191.37,86.88l-5.89,13.05c-1.45,3.23-2.72,4.37-5.34,4.37h-1.3v-2.38h1.1c1.69,0,2.22-.49,3.16-2.54l.28-.61L177.8,86.88h2.87l4.07,8.94,3.83-8.94Z"/><path class="cls-1" d="M205.58,94.47h2.77c0,1.85,1.53,2.88,3.48,2.88,1.77,0,3.28-.93,3.28-2.46s-1.78-2.07-3.79-2.54c-2.54-.62-5.46-1.32-5.46-4.75,0-3,2.27-4.77,5.82-4.77s5.74,2,5.74,5.1h-2.7c0-1.66-1.37-2.56-3.1-2.56s-3,.76-3,2.12c0,1.53,1.71,2,3.68,2.42,2.59.64,5.63,1.38,5.63,5,0,3.33-2.68,5.1-6.05,5.1C208.12,100,205.58,97.86,205.58,94.47Z"/><path class="cls-1" d="M243.46,91.55V99.7h-2.63V92.19c0-2.06-.9-3.24-2.5-3.24s-3,1.55-3,3.74v7h-2.58V92.19c0-2.06-.89-3.24-2.5-3.24s-3,1.55-3,3.74v7H224.6V86.88h1.86l.46,1.65a5.12,5.12,0,0,1,4-1.94,4.19,4.19,0,0,1,3.85,2.24,5.06,5.06,0,0,1,4.19-2.24C241.64,86.59,243.46,88.64,243.46,91.55Z"/><path class="cls-1" d="M263.59,86.87V99.69h-2.12l-.26-1.55a6.45,6.45,0,0,1-4.65,1.87,6.73,6.73,0,0,1,0-13.45,6.47,6.47,0,0,1,4.69,1.91l.31-1.6ZM261,93.28a4.2,4.2,0,1,0-4.18,4.21A4.07,4.07,0,0,0,261,93.28Z"/><path class="cls-1" d="M278.43,86.81v2.48H277c-2.18,0-3.27,1.25-3.27,3.57V99.7h-2.64V86.88h1.79l.44,1.75a4.56,4.56,0,0,1,3.93-1.82Z"/><path class="cls-1" d="M291.47,97.31V99.7h-2A4.21,4.21,0,0,1,285,95.13v-6h-2.3v-.51l4.47-4.74h.44v3h3.82v2.25h-3.79v5.8a2.16,2.16,0,0,0,2.4,2.38Z"/><path class="cls-1" d="M309.8,94.19H299.39a3.76,3.76,0,0,0,3.92,3.35,3.85,3.85,0,0,0,3.45-1.88h2.78a7,7,0,1,1,.31-2.34A8.46,8.46,0,0,1,309.8,94.19Zm-6.49-5.25a3.79,3.79,0,0,0-3.86,3.1h7.76a3.83,3.83,0,0,0-3.9-3.09Z"/><path class="cls-1" d="M323.73,86.81v2.48h-1.39c-2.18,0-3.27,1.25-3.27,3.57V99.7h-2.64V86.88h1.79l.44,1.75a4.56,4.56,0,0,1,3.93-1.82Z"/><path class="cls-1" d="M344.81,93.55h-3.15V99.7h-2.73V83.08h6.47A5.26,5.26,0,0,1,351,88.34a5.06,5.06,0,0,1-3.39,4.83l3.84,6.53h-3.06ZM341.66,91h3.58a2.69,2.69,0,1,0,0-5.36h-3.58Z"/><path class="cls-1" d="M369.78,94.19H359.37a3.76,3.76,0,0,0,3.92,3.35,3.86,3.86,0,0,0,3.46-1.88h2.77a7,7,0,1,1,.31-2.34A8.46,8.46,0,0,1,369.78,94.19Zm-6.49-5.25a3.8,3.8,0,0,0-3.86,3.1h7.76a3.82,3.82,0,0,0-3.9-3.09Z"/><path class="cls-1" d="M389.18,86.87V99.69h-2.12l-.26-1.55a6.45,6.45,0,0,1-4.65,1.87,6.73,6.73,0,0,1,0-13.45,6.46,6.46,0,0,1,4.69,1.91l.31-1.6Zm-2.64,6.41a4.19,4.19,0,1,0-4.18,4.21A4.07,4.07,0,0,0,386.54,93.28Z"/><path class="cls-1" d="M396.72,82.28h2.64V99.7h-2.64Z"/><path class="cls-1" d="M426.81,97.12V99.7h-9.92V83.08h9.66v2.55h-6.93V90h6.31v2.5h-6.31v4.65Z"/><path class="cls-1" d="M432.65,95.63h2.57c.07,1.36,1.21,2.06,2.75,2.06s2.51-.6,2.51-1.67-1.38-1.49-3-1.76c-2.13-.36-4.65-.85-4.65-3.82,0-2.3,2-3.88,5-3.88s4.91,1.63,5,4.11h-2.49c-.05-1.22-1-1.87-2.53-1.87s-2.36.62-2.36,1.56c0,1.13,1.31,1.35,2.85,1.61,2.17.36,4.8.77,4.8,3.94,0,2.49-2.07,4.1-5.2,4.1S432.71,98.29,432.65,95.63Z"/><path class="cls-1" d="M456.76,97.31V99.7h-2a4.21,4.21,0,0,1-4.54-4.57v-6H448v-.51l4.46-4.74h.45v3h3.82v2.25h-3.8v5.8a2.16,2.16,0,0,0,2.41,2.38Z"/><path class="cls-1" d="M475.72,86.87V99.69H473.6l-.26-1.55a6.45,6.45,0,0,1-4.65,1.87,6.73,6.73,0,0,1,0-13.45,6.46,6.46,0,0,1,4.69,1.91l.31-1.6Zm-2.64,6.41a4.19,4.19,0,1,0-4.18,4.21A4.07,4.07,0,0,0,473.08,93.28Z"/><path class="cls-1" d="M490.44,97.31V99.7h-2a4.22,4.22,0,0,1-4.54-4.57v-6h-2.29v-.51l4.46-4.74h.45v3h3.81v2.25h-3.79v5.8a2.16,2.16,0,0,0,2.4,2.38Z"/><path class="cls-1" d="M508.77,94.19H498.36a3.76,3.76,0,0,0,3.92,3.35,3.86,3.86,0,0,0,3.46-1.88h2.77a7,7,0,1,1,.31-2.34A8.46,8.46,0,0,1,508.77,94.19Zm-6.49-5.25a3.8,3.8,0,0,0-3.86,3.1h7.76a3.82,3.82,0,0,0-3.9-3.09Z"/><path class="cls-1" d="M15.85,72.34C24.23,87.3,41.27,92.18,56,83.93s18.89-25,10.5-40.49l-26.75,15,4,7.1,17.83-10c1.94,7.85-2,16-10,20.47-10.31,5.77-21.38,2.29-27.34-8.33s-2.92-22,7.19-27.65c7.54-4.23,16.25-3.59,22,1.63l8.47-4.74C53.5,27.28,39,25.32,26.78,32.15,12.11,40.37,7.5,57.43,15.85,72.34Z"/><path class="cls-1" d="M41.19,0,20.7,16.18V10.33h-10v13.8L0,32.54V101.3H82.38V32.54Zm33,93.06H8.24V36.53l32.95-26,33,26Z"/><path class="cls-2" d="M132.43,51.44C132.39,64,124,73.23,112,73.23c-11.79,0-20.75-8.85-20.75-20.86s8.72-20.94,20.59-20.94c10,0,18.22,6.3,20.08,15.26H123a11.47,11.47,0,0,0-11-7c-7.1,0-12,5.19-12,12.67S104.75,65,112,65c5.17,0,9.67-2.74,11.15-6.87h-12V51.44Z"/><path class="cls-2" d="M156.05,40.72c7,0,11.34,5,11.34,12.86V72.36H159V55c0-4.63-1.64-6.92-5.4-6.92-4.16,0-6.93,3-6.93,8V72.36h-8.36v-42h8.36v14a13.5,13.5,0,0,1,9.34-3.6Z"/><path class="cls-2" d="M206.51,41.41v30.9H200l-.72-2.76a15,15,0,0,1-10,3.68c-9.3,0-16.21-7-16.21-16.37a15.83,15.83,0,0,1,16.21-16.28,15.08,15.08,0,0,1,10.15,3.78l.89-3Zm-8.19,15.45a8.42,8.42,0,1,0-8.41,8.47A8.2,8.2,0,0,0,198.32,56.86Z"/><path class="cls-2" d="M233.09,41.28v7.88h-3.62c-4.71,0-6.57,2.09-6.57,7.14V72.36h-8.36V41.45h5.36l1.48,3.79c2.21-2.73,5-4,9-4Z"/><path class="cls-2" d="M270.76,57c0,9.32-6.8,16.26-16.18,16.26A14.75,14.75,0,0,1,245,69.79l-1,2.57h-6.14V30.5h8.32V43.25a14.93,14.93,0,0,1,8.44-2.53C264,40.72,270.76,47.65,270.76,57Zm-8.48,0a8.38,8.38,0,1,0-8.38,8.39A8.17,8.17,0,0,0,262.28,57Z"/><path class="cls-2" d="M308.07,41.54V72.31h-6.52l-.71-2.75a15,15,0,0,1-10,3.67c-9.26,0-16.15-7-16.15-16.3a15.77,15.77,0,0,1,16.15-16.21A15,15,0,0,1,301,44.48l.89-2.94Zm-8.15,15.39a8.38,8.38,0,1,0-8.38,8.43A8.17,8.17,0,0,0,299.92,56.93Z"/><path class="cls-2" d="M347.4,41.54V72.31h-6.52l-.72-2.75a15,15,0,0,1-10,3.67c-9.26,0-16.14-7-16.14-16.3a15.76,15.76,0,0,1,16.14-16.21,15,15,0,0,1,10.11,3.76l.89-2.94Zm-8.16,15.39a8.38,8.38,0,1,0-8.37,8.43A8.17,8.17,0,0,0,339.24,56.93Z"/><path class="cls-2" d="M373.86,41.42v7.85h-3.61c-4.69,0-6.54,2.07-6.54,7.1v16h-8.32V41.59h5.33l1.48,3.77c2.19-2.72,5-3.94,8.93-3.94Z"/><path class="cls-2" d="M374.75,63.46h8.82v8.9h-8.82Z"/><path class="cls-2" d="M388.76,56.88c0-9.22,7-16.16,16.39-16.16,8,0,14.15,5.05,15.64,12.62h-8.26a7.91,7.91,0,0,0-7.43-4.8c-4.51,0-7.91,3.62-7.91,8.39s3.45,8.48,7.91,8.48a7.84,7.84,0,0,0,7.42-5.16h8.38a15.62,15.62,0,0,1-15.8,13A16.08,16.08,0,0,1,388.76,56.88Z"/><path class="cls-2" d="M424.38,57c0-9.33,7.1-16.25,16.64-16.25S457.65,47.65,457.65,57,450.5,73.23,441,73.23,424.38,66.25,424.38,57Zm24.84,0c0-5-3.41-8.43-8.2-8.43s-8.2,3.45-8.2,8.43,3.4,8.44,8.2,8.44S449.22,62,449.22,57Z"/><path class="cls-2" d="M509.46,53.06v19.3h-8.32V54.44c0-4.11-1.61-6.28-4.62-6.28-3.72,0-5.92,2.74-5.92,7.55V72.36h-8.11V54.44c0-4.11-1.57-6.28-4.55-6.28-3.76,0-6,2.74-6,7.55V72.36h-8.32V41.59h5.81L471,45.4a11.83,11.83,0,0,1,9.18-4.54,10,10,0,0,1,8.93,4.92,11.63,11.63,0,0,1,9.52-4.92C505,40.86,509.46,45.85,509.46,53.06Z"/></g></g></svg>