<svg width="50" height="50" viewBox="0 0 50 50" fill="none" xmlns="http://www.w3.org/2000/svg">
<path d="M5.81897 5.83022V49.1418C5.81897 49.6018 6.1919 49.9748 6.65198 49.9748H38.3028C38.7625 49.9748 39.1354 49.6018 39.1354 49.1418V14.1596C39.1354 14.1411 39.1265 14.1253 39.1248 14.1071C39.1207 14.034 39.1063 13.962 39.0823 13.893C39.073 13.8663 39.0665 13.8405 39.0548 13.8145C39.0143 13.7239 38.9581 13.6412 38.8881 13.5705L30.559 5.24149C30.4884 5.17116 30.4053 5.11489 30.3141 5.07475C30.289 5.06412 30.2637 5.0552 30.2376 5.04731C30.1679 5.02329 30.0955 5.00888 30.0218 5.00408C30.0077 5.00648 29.9912 4.99756 29.9737 4.99756H6.65198C6.1919 4.99756 5.81897 5.37015 5.81897 5.83022ZM36.292 13.3266H30.8064V7.84103L36.292 13.3266ZM7.48464 6.66323H29.1407V14.1596C29.1407 14.6193 29.5137 14.9923 29.9734 14.9923H37.4698V48.3091H7.48464V6.66323Z" fill="#221F1F"/>
<path d="M40.8014 43.3115V44.9772H43.3001C43.7602 44.9772 44.1331 44.6046 44.1331 44.1445V0.833006C44.1331 0.372932 43.7602 0 43.3001 0H11.6493C11.1892 0 10.8163 0.372932 10.8163 0.833006V3.33168H12.4823V1.66567H42.4671V43.3115H40.8014Z" fill="#221F1F"/>
<path d="M12.4823 16.6582H32.472V18.3239H12.4823V16.6582Z" fill="#221F1F"/>
<path d="M12.4823 11.6606H19.1457V13.3267H12.4823V11.6606Z" fill="#221F1F"/>
<path d="M12.4823 21.6558H25.809V23.3218H12.4823V21.6558Z" fill="#221F1F"/>
<path d="M27.4746 21.6558H32.472V23.3218H27.4746V21.6558Z" fill="#221F1F"/>
<path d="M12.4823 26.6528H32.472V28.3188H12.4823V26.6528Z" fill="#221F1F"/>
<path d="M12.4823 36.6484H32.472V38.3145H12.4823V36.6484Z" fill="#221F1F"/>
<path d="M19.9783 31.6509H32.472V33.3165H19.9783V31.6509Z" fill="#221F1F"/>
<path d="M12.4823 31.6509H18.3126V33.3165H12.4823V31.6509Z" fill="#221F1F"/>
<path d="M12.4823 41.646H15.814V43.3117H12.4823V41.646Z" fill="#221F1F"/>
<path d="M17.4796 41.646H32.472V43.3117H17.4796V41.646Z" fill="#221F1F"/>
</svg>
