<?xml version="1.0" encoding="utf-8"?>
<!-- Generator: Adobe Illustrator 19.0.0, SVG Export Plug-In . SVG Version: 6.00 Build 0)  -->
<svg version="1.1" id="Layer_1" xmlns="http://www.w3.org/2000/svg" xmlns:xlink="http://www.w3.org/1999/xlink" x="0px" y="0px"
	 viewBox="0 0 16 16" style="enable-background:new 0 0 16 16;" xml:space="preserve">
<style type="text/css">
	.st0{fill:#FFFFFF;stroke:#FFFFFF;stroke-width:0.75;stroke-miterlimit:10;}
</style>
<g>
	<path class="st0" d="M8.5,6.6c0,0.6,0,1.2,0,1.8c0,0.2-0.1,0.4-0.1,0.6C8.2,8.8,8,8.8,7.9,8.6C7.2,8,6.6,7.4,6,6.8
		C5.9,6.7,5.6,6.6,5.4,6.6c-0.6,0-1.1,0-1.7,0C2.9,6.5,2.3,6,2.3,5.1c0-0.6,0-1.3,0-1.9c0-0.8,0.6-1.4,1.4-1.4c2.9,0,5.7,0,8.6,0
		c0.8,0,1.4,0.6,1.4,1.4c0,0.6,0,1.2,0,1.9c0,0.9-0.6,1.5-1.5,1.5C11,6.6,9.8,6.6,8.5,6.6z M7.9,8.1c0,0,0.1,0,0.1-0.1
		c0-0.3,0-0.7,0-1C8,6,8,6.1,8.9,6.1c1.1,0,2.2,0,3.4,0c0.6,0,1-0.4,1-1c0-0.6,0-1.2,0-1.8c0-0.6-0.4-1-1-1c-2.9,0-5.7,0-8.6,0
		c-0.6,0-1,0.4-1,0.9c0,0.7,0,1.3,0,2c0,0.6,0.4,0.9,1,0.9c0.6,0,1.2,0,1.8,0c0.3,0,0.6,0.1,0.7,0.3C6.8,7,7.4,7.5,7.9,8.1z"/>
	<path class="st0" d="M13.3,11.5c0.2,0.1,0.3,0.2,0.4,0.3c1,0.4,1.1,1.2,1,2.1c0,0.1-0.1,0.2-0.2,0.3c-0.1-0.1-0.2-0.2-0.2-0.4
		c0-0.1,0-0.3,0-0.4c0.1-0.6-0.1-0.9-0.6-1.3c-0.4-0.3-0.7-0.4-1.2-0.1c-0.6,0.4-1.3,0.3-1.9-0.1c-0.3-0.2-0.4-0.1-0.6,0
		c-0.1,0.1-0.1,0.1-0.2,0.1c-0.6,0.3-0.9,0.7-0.8,1.4c0,0.1,0,0.2,0,0.3c-0.1,0.1-0.1,0.2-0.2,0.4c-0.1-0.1-0.2-0.2-0.2-0.3
		c0-0.3-0.1-0.7,0-1c0.1-0.3,0.2-0.5,0.5-0.7c0.3-0.2,0.6-0.4,0.9-0.6C9.3,10,9.4,9.1,10.4,8.4c0.8-0.6,1.9-0.5,2.6,0.1
		C13.8,9.3,14,10.3,13.3,11.5z M11.6,8.5c-1,0-1.7,0.7-1.7,1.7c0,1,0.8,1.7,1.7,1.7c0.9,0,1.7-0.7,1.7-1.7
		C13.3,9.2,12.6,8.5,11.6,8.5z"/>
	<path class="st0" d="M6.1,11.5c0.3,0.2,0.5,0.4,0.8,0.5c0.4,0.3,0.6,0.6,0.6,1.1c0,0.3,0,0.5,0,0.8c0,0.1-0.1,0.2-0.2,0.3
		c-0.1-0.1-0.2-0.2-0.2-0.2c0-0.1,0-0.2,0-0.3c0.2-1-0.5-1.3-1.2-1.7c-0.1-0.1-0.3,0-0.4,0.1c-0.8,0.4-1.5,0.4-2.3,0
		c-0.1-0.1-0.3,0-0.5,0c-0.1,0-0.2,0.1-0.2,0.2c-0.7,0.3-0.9,0.8-0.8,1.5c0,0.1,0,0.2,0,0.3c0,0.1-0.1,0.2-0.2,0.2
		c-0.1-0.1-0.2-0.2-0.2-0.3c-0.2-1,0-1.5,0.9-2.1c0.2-0.1,0.3-0.2,0.5-0.3c-0.6-1.4-0.5-2.3,0.4-3c0.8-0.6,1.8-0.6,2.6,0
		C6.6,9.2,6.8,10.1,6.1,11.5z M4.4,11.9c0.9,0,1.7-0.7,1.7-1.7c0-1-0.7-1.7-1.7-1.7c-1,0-1.7,0.7-1.7,1.7
		C2.7,11.1,3.5,11.9,4.4,11.9z"/>
</g>
</svg>
