<svg xmlns="http://www.w3.org/2000/svg" width="36" height="36" viewBox="0 0 36 36"><defs><style>.a{fill:#fff;}</style></defs><path class="a" d="M33.152,31.213a3.9,3.9,0,1,0-2.109,0v2.677H26.637V5.555H20.774V0h-1.9V1.994H17.124V0h-1.9V5.555H9.363V33.891H4.957V31.354a3.9,3.9,0,1,0-2.109,0v2.537H0V36H36V33.891H33.152ZM19.945,13.758v-3h2.109v3Zm0,2.25h2.109v3H19.945Zm0,5.25h2.109v3H19.945Zm-2.822-17.7h1.753v2H17.124Zm-3.178,10.2v-3h2.109v3Zm0,2.25h2.109v3H13.945Zm0,5.25h2.109v3H13.945Zm8.191,12.633H20.027V30.3H15.973v3.586H13.863V28.2h8.273Z"/></svg>