<svg xmlns="http://www.w3.org/2000/svg" width="25.474" height="35.289" viewBox="0 0 25.474 35.289"><defs><style>.a{fill:#fff;}</style></defs><g transform="translate(-0.145)"><path class="a" d="M80.976,71.662v7.005h2.547V74.21a.637.637,0,0,1,.637-.637h3.821a.637.637,0,0,1,.637.637v4.458h2.547V71.662a.637.637,0,0,1,.637-.637h.675L86.071,66.1l-6.407,4.928h.675a.637.637,0,0,1,.637.637Zm0,0" transform="translate(-73.189 -60.836)"/><path class="a" d="M144.145,176h2.547v3.821h-2.547Zm0,0" transform="translate(-132.537 -161.989)"/><path class="a" d="M12.882,35.289c2.4-2.992,12.737-16.266,12.737-22.552a12.737,12.737,0,0,0-25.474,0c0,6.287,10.341,19.56,12.737,22.552ZM4.215,10.324l8.279-6.369a.636.636,0,0,1,.777,0l8.279,6.369a.637.637,0,0,1-.388,1.139H19.251v7.005a.637.637,0,0,1-.637.637H7.15a.637.637,0,0,1-.637-.637V11.463H4.6a.637.637,0,0,1-.388-1.141Zm0,0" transform="translate(0)"/></g></svg>