<svg width="50" height="50" viewBox="0 0 50 50" fill="none" xmlns="http://www.w3.org/2000/svg">
<path d="M34.879 39.022C36.4279 37.8198 37.8198 36.4279 39.0221 34.879L48.1689 44.0256C49.3083 45.165 49.3083 47.0294 48.1689 48.1688C47.0296 49.3081 45.1651 49.3081 44.0258 48.1688L34.879 39.022Z" fill="#006AFF"/>
<path d="M39.022 34.8792C37.8196 36.4281 36.4277 37.82 34.8789 39.0223L32.0914 36.2348C33.6712 35.0692 35.0691 33.6713 36.2346 32.0916L39.022 34.8792Z" fill="#FFCE34"/>
<path d="M33.7855 30.2852C32.8008 31.6198 31.62 32.8008 30.2852 33.7855L30.2859 33.7861C27.5481 35.8061 24.1635 37 20.5 37C11.3873 37 4 29.6127 4 20.5C4 11.3873 11.3873 4 20.5 4C29.6127 4 37 11.3873 37 20.5C37 24.1635 35.8061 27.5481 33.7861 30.286L33.7855 30.2852ZM22.15 20.5V13.9C22.15 12.9925 21.4075 12.25 20.5 12.25C19.5925 12.25 18.85 12.9925 18.85 13.9V20.5C18.85 21.4075 19.5925 22.15 20.5 22.15C21.4076 22.15 22.15 21.4075 22.15 20.5ZM22.15 27.1C22.15 26.1888 21.4113 25.45 20.5 25.45C19.5888 25.45 18.85 26.1888 18.85 27.1C18.85 28.0113 19.5887 28.75 20.5 28.75C21.4113 28.75 22.15 28.0113 22.15 27.1Z" fill="#FFCC60"/>
<path d="M22.46 12.6952V20.5077C22.46 21.5819 21.5811 22.4608 20.5068 22.4608C19.4326 22.4608 18.5537 21.5819 18.5537 20.5077V12.6952C18.5537 11.621 19.4326 10.7421 20.5068 10.7421C21.5812 10.7421 22.46 11.621 22.46 12.6952Z" fill="#FD4A4A"/>
<path d="M20.5078 30.2733C19.4291 30.2733 18.5547 29.3989 18.5547 28.3202C18.5547 27.2415 19.4291 26.3671 20.5078 26.3671C21.5865 26.3671 22.4609 27.2415 22.4609 28.3202C22.4609 29.3989 21.5865 30.2733 20.5078 30.2733Z" fill="#FD4A4A"/>
<path d="M20.5078 0C31.8158 0 41.0156 9.19977 41.0156 20.5077C41.0156 24.7529 39.7189 28.7009 37.5009 31.9765L48.8594 43.3351C49.5949 44.0706 50 45.0516 50 46.0973C50 47.143 49.5949 48.1238 48.8595 48.8594C48.124 49.5949 47.1431 50 46.0974 50C45.0517 50 44.0707 49.5949 43.3352 48.8595L31.9765 37.5008C28.7009 39.7188 24.7529 41.0155 20.5077 41.0155C9.19977 41.0155 0 31.8157 0 20.5077C0 9.19977 9.19977 0 20.5078 0ZM44.7163 47.4783C45.0829 47.8449 45.5734 48.0469 46.0974 48.0469C46.6214 48.0469 47.1118 47.845 47.4784 47.4783C47.845 47.1117 48.0469 46.6212 48.0469 46.0973C48.0469 45.5733 47.845 45.0828 47.4783 44.7162L39.0947 36.3325C38.2494 37.3251 37.3253 38.2493 36.3326 39.0946L44.7163 47.4783ZM34.9474 37.7095C35.9462 36.8709 36.8709 35.9461 37.7095 34.9474L36.3237 33.5616C35.4921 34.5683 34.568 35.4924 33.5616 36.3238L34.9474 37.7095ZM20.5078 39.0623C30.7388 39.0623 39.0624 30.7387 39.0624 20.5077C39.0624 10.2767 30.7388 1.95312 20.5078 1.95312C10.2768 1.95312 1.95322 10.2767 1.95322 20.5077C1.95322 30.7387 10.2767 39.0623 20.5078 39.0623Z" fill="black"/>
<path d="M29.0523 5.70746C30.759 6.69281 32.2706 7.95482 33.5448 9.45823C33.8935 9.86965 33.8426 10.4859 33.4312 10.8347C33.2476 10.9903 33.0234 11.0663 32.8002 11.0663C32.5232 11.0663 32.2479 10.949 32.0547 10.7211C30.9261 9.38938 29.5874 8.27171 28.0756 7.39886C27.6086 7.12924 27.4485 6.53187 27.7182 6.06488C27.988 5.5978 28.5852 5.43784 29.0523 5.70746Z" fill="black"/>
<path d="M33.9625 11.5862C34.4295 11.3164 35.0268 11.4761 35.2966 11.9432L35.3067 11.9606C35.5776 12.427 35.4191 13.0247 34.9528 13.2956C34.7984 13.3852 34.6296 13.4278 34.4631 13.4278C34.1266 13.4278 33.7991 13.2536 33.6178 12.9417L33.6055 12.9204C33.3356 12.4533 33.4955 11.856 33.9625 11.5862Z" fill="black"/>
<path d="M20.5078 25.3905C22.1232 25.3905 23.4375 26.7048 23.4375 28.3202C23.4375 29.9356 22.1232 31.2499 20.5078 31.2499C18.8924 31.2499 17.5781 29.9356 17.5781 28.3202C17.5781 26.7048 18.8924 25.3905 20.5078 25.3905ZM20.5078 29.2967C21.0463 29.2967 21.4844 28.8587 21.4844 28.3202C21.4844 27.7817 21.0463 27.3436 20.5078 27.3436C19.9693 27.3436 19.5313 27.7817 19.5313 28.3202C19.5313 28.8587 19.9693 29.2967 20.5078 29.2967Z" fill="black"/>
<path d="M20.5078 9.76556C22.1232 9.76556 23.4375 11.0798 23.4375 12.6952V20.5077C23.4375 22.1231 22.1232 23.4374 20.5078 23.4374C18.8924 23.4374 17.5781 22.1231 17.5781 20.5077V12.6952C17.5781 11.0798 18.8924 9.76556 20.5078 9.76556ZM19.5313 20.5077C19.5313 21.0462 19.9693 21.4843 20.5078 21.4843C21.0463 21.4843 21.4844 21.0462 21.4844 20.5077V12.6952C21.4844 12.1568 21.0463 11.7187 20.5078 11.7187C19.9693 11.7187 19.5313 12.1568 19.5313 12.6952V20.5077Z" fill="black"/>
</svg>
