<svg xmlns="http://www.w3.org/2000/svg" width="35.174" height="33.379" viewBox="0 0 35.174 33.379"><defs><style>.a{fill:#fff;}</style></defs><g transform="translate(-326.088 -322.51)"><path class="a" d="M34.292,25,23.428,23.415l-4.982-9.834a1.093,1.093,0,0,0-1.855,0l-4.845,9.834L.881,25A1.032,1.032,0,0,0,.3,26.755l7.854,7.669L6.3,45.226a1.039,1.039,0,0,0,1.5,1.093l9.71-5.113,9.847,5.113a1.034,1.034,0,0,0,1.5-1.093l-1.855-10.8,7.854-7.669A1.032,1.032,0,0,0,34.292,25Z" transform="translate(326.088 309.444)"/></g></svg>