<svg width="400" height="400" viewBox="0 0 400 400" fill="none" xmlns="http://www.w3.org/2000/svg">
<circle cx="199.5" cy="199.5" r="40.5" fill="url(#paint0_linear)"/>
<path d="M300 200C300 255.228 255.228 300 200 300C144.772 300 100 255.228 100 200C100 144.772 144.772 100 200 100C255.228 100 300 144.772 300 200ZM129.257 200C129.257 239.071 160.929 270.743 200 270.743C239.071 270.743 270.743 239.071 270.743 200C270.743 160.929 239.071 129.257 200 129.257C160.929 129.257 129.257 160.929 129.257 200Z" fill="url(#paint1_linear)"/>
<path d="M350 200C350 282.843 282.843 350 200 350C117.157 350 50 282.843 50 200C50 117.157 117.157 50 200 50C282.843 50 350 117.157 350 200ZM78.6985 200C78.6985 266.993 133.007 321.302 200 321.302C266.993 321.302 321.302 266.993 321.302 200C321.302 133.007 266.993 78.6985 200 78.6985C133.007 78.6985 78.6985 133.007 78.6985 200Z" fill="url(#paint2_linear)"/>
<path d="M400 200C400 310.457 310.457 400 200 400C89.5431 400 0 310.457 0 200C0 89.5431 89.5431 0 200 0C310.457 0 400 89.5431 400 200ZM30.3084 200C30.3084 293.718 106.282 369.692 200 369.692C293.718 369.692 369.692 293.718 369.692 200C369.692 106.282 293.718 30.3084 200 30.3084C106.282 30.3084 30.3084 106.282 30.3084 200Z" fill="url(#paint3_linear)"/>
<defs>
<linearGradient id="paint0_linear" x1="199.5" y1="159" x2="199.5" y2="240" gradientUnits="userSpaceOnUse">
<stop stop-color="#14B59F"/>
<stop offset="1" stop-color="#21AE86"/>
</linearGradient>
<linearGradient id="paint1_linear" x1="200" y1="100" x2="200" y2="300" gradientUnits="userSpaceOnUse">
<stop stop-color="#14B59F"/>
<stop offset="1" stop-color="#21AE86"/>
</linearGradient>
<linearGradient id="paint2_linear" x1="200" y1="50" x2="200" y2="350" gradientUnits="userSpaceOnUse">
<stop stop-color="#14B59F"/>
<stop offset="1" stop-color="#21AE86"/>
</linearGradient>
<linearGradient id="paint3_linear" x1="200" y1="0" x2="200" y2="400" gradientUnits="userSpaceOnUse">
<stop stop-color="#14B59F"/>
<stop offset="1" stop-color="#21AE86"/>
</linearGradient>
</defs>
</svg>
