<svg xmlns="http://www.w3.org/2000/svg" width="43.345" height="29.167" viewBox="0 0 43.345 29.167"><defs><style>.a{fill:#fff;}</style></defs><path class="a" d="M41.64,52.92a1.212,1.212,0,0,1-.032.361L38.934,63.976a1.216,1.216,0,0,1-1.173.921l-16.042.081H5.671a1.215,1.215,0,0,1-1.179-.922L1.819,53.32a1.213,1.213,0,0,1-.032-.371,2.554,2.554,0,1,1,2.386-.464L7.52,55.858a4.543,4.543,0,0,0,6.848-.463l5.5-7.289a2.554,2.554,0,1,1,3.647-.043l0,.006,5.461,7.309A4.558,4.558,0,0,0,32.617,57.2a4.508,4.508,0,0,0,3.209-1.329L39.195,52.5a2.552,2.552,0,1,1,2.445.418ZM38.673,68.785a1.215,1.215,0,0,0-1.215-1.215H6.022a1.215,1.215,0,0,0-1.215,1.215V71.7a1.215,1.215,0,0,0,1.215,1.215H37.458A1.215,1.215,0,0,0,38.673,71.7Z" transform="translate(0 -43.75)"/></svg>