<svg xmlns="http://www.w3.org/2000/svg" width="32.869" height="34.987" viewBox="0 0 32.869 34.987"><defs><style>.a{fill:#fff;}</style></defs><path class="a" d="M303.05,3.143V1.025a1.025,1.025,0,0,0-2.05,0V3.143a1.025,1.025,0,0,0,2.05,0Zm0,0" transform="translate(-280.432 0)"/><path class="a" d="M151,152.025a1.025,1.025,0,0,0,1.025,1.025h2.05a1.025,1.025,0,1,0,0-2.05h-2.05A1.025,1.025,0,0,0,151,152.025Zm0,0" transform="translate(-140.682 -140.682)"/><path class="a" d="M424.075,151h-2.05a1.025,1.025,0,1,0,0,2.05h2.05a1.025,1.025,0,1,0,0-2.05Zm0,0" transform="translate(-392.231 -140.682)"/><path class="a" d="M389.059,45.23a1.025,1.025,0,0,0-1.449,0l-1.449,1.449a1.025,1.025,0,0,0,1.449,1.449l1.449-1.449A1.025,1.025,0,0,0,389.059,45.23Zm0,0" transform="translate(-359.492 -41.859)"/><path class="a" d="M196.679,48.129a1.025,1.025,0,0,0,1.449-1.449l-1.449-1.449a1.025,1.025,0,0,0-1.449,1.449Zm0,0" transform="translate(-181.609 -41.86)"/><path class="a" d="M241.062,96.166a5.082,5.082,0,0,0,1.069,3.075h8.11a5.046,5.046,0,0,0,1.067-3.075,5.123,5.123,0,0,0-10.246,0Zm0,0" transform="translate(-224.589 -84.823)"/><path class="a" d="M277.15,242.025V241H271v.891a3.171,3.171,0,0,0,3.075,3.278A3.138,3.138,0,0,0,277.15,242.025Zm0,0" transform="translate(-252.482 -224.532)"/><path class="a" d="M90,272v13.227l5.911,2.64a5.347,5.347,0,0,0,2.3.533h6.221a2.05,2.05,0,0,0,1.177-.371l10.233-7.173a2.054,2.054,0,0,0,.513-2.85,2.028,2.028,0,0,0-2.85-.513l-6.559,4.586a1.029,1.029,0,0,1-.567.17H97.243a1.025,1.025,0,1,1,0-2.05h8.2a2.05,2.05,0,1,0,0-4.1H99.6l-4.854-3.236A5.143,5.143,0,0,0,91.893,272Zm0,0" transform="translate(-83.85 -253.413)"/><path class="a" d="M2.616,286.241a1.025,1.025,0,0,0,1.484-.917V272H1.025A1.025,1.025,0,0,0,0,273.025v10.759a1.025,1.025,0,0,0,.414.823Zm0,0" transform="translate(0 -253.413)"/></svg>